<svg xmlns="http://www.w3.org/2000/svg" width="72" height="72" viewBox="0 0 72 72" fill="none">
  <circle cx="36" cy="36" r="36" fill="#0d3540"/>
  <path d="M20 52 A22 22 0 0 1 20 20" stroke="#1D9E75" stroke-width="3.5" stroke-linecap="round" fill="none"/>
  <polygon points="20,52 14,48 22,44" fill="#1D9E75"/>
  <path d="M52 20 A22 22 0 0 1 52 52" stroke="#5DCAA5" stroke-width="3.5" stroke-linecap="round" fill="none"/>
  <polygon points="52,20 58,24 50,28" fill="#5DCAA5"/>
  <path d="M36 18 C26 24 24 34 28 42 C30 46 36 50 36 50 C36 50 42 46 44 42 C48 34 46 24 36 18Z" fill="#1D9E75"/>
  <path d="M36 50 L36 26" stroke="#0d3540" stroke-width="2" stroke-linecap="round"/>
  <path d="M36 32 C33 29 29 29 27 27" stroke="#0d3540" stroke-width="1.5" stroke-linecap="round" fill="none"/>
  <path d="M36 38 C39 35 43 35 45 33" stroke="#0d3540" stroke-width="1.5" stroke-linecap="round" fill="none"/>
  <path d="M36 50 C34 53 31 55 31 57.5 A5 5 0 0 0 41 57.5 C41 55 38 53 36 50Z" fill="#5DCAA5"/>
</svg>